<?xml version="1.0"?>
<svg xmlns="http://www.w3.org/2000/svg" height="512px" viewBox="0 -23 372.00696 372" width="512px" class=""><g><path d="m101.816406 315.835938c-55.449218-30.636719-89.855468-89-89.816406-152.347657.042969-63.351562 34.527344-121.667969 90.015625-152.234375 2.898437-1.605468 3.949219-5.253906 2.34375-8.15625-1.605469-2.898437-5.253906-3.949218-8.152344-2.34375-59.308593 32.675782-96.160156 95.011719-96.207031 162.722656-.046875 67.714844 36.726562 130.097657 95.988281 162.851563 2.898438 1.609375 6.550781.566406 8.15625-2.332031 1.609375-2.898438.566407-6.550782-2.332031-8.160156zm0 0" data-original="#000000" class="active-path" data-old_color="#000000" fill="#FFFFFF"/><path d="m275.804688.753906c-2.902344-1.605468-6.550782-.554687-8.15625 2.34375-1.605469 2.902344-.554688 6.550782 2.34375 8.15625 55.492187 30.566406 89.972656 88.882813 90.015624 152.234375.039063 63.347657-34.367187 121.710938-89.816406 152.347657-2.894531 1.609374-3.941406 5.261718-2.332031 8.160156 1.609375 2.898437 5.261719 3.941406 8.15625 2.332031 59.265625-32.753906 96.035156-95.136719 95.992187-162.851563-.046874-67.710937-36.898437-130.046874-96.203124-162.722656zm0 0" data-original="#000000" class="active-path" data-old_color="#000000" fill="#FFFFFF"/><path d="m121.128906 280.816406c-42.6875-23.605468-69.164062-68.550781-69.125-117.328125.039063-48.777343 26.589844-93.679687 69.316406-117.214843 2.898438-1.605469 3.949219-5.257813 2.34375-8.15625-1.605468-2.898438-5.257812-3.949219-8.15625-2.34375-46.539062 25.648437-75.460937 74.566406-75.503906 127.703124-.042968 53.140626 28.796875 102.105469 75.296875 127.828126 2.894531 1.609374 6.546875.566406 8.15625-2.328126 1.609375-2.898437.566407-6.550781-2.328125-8.160156zm0 0" data-original="#000000" class="active-path" data-old_color="#000000" fill="#FFFFFF"/><path d="m332.003906 163.605469c-.058594-53.167969-28.96875-102.113281-75.5-127.832031-2.898437-1.605469-6.550781-.554688-8.15625 2.34375-1.605468 2.902343-.554687 6.550781 2.34375 8.15625 42.722656 23.539062 69.277344 68.4375 69.316406 117.21875.039063 48.777343-26.441406 93.71875-69.125 117.328124-2.898437 1.609376-3.941406 5.261719-2.332031 8.160157 1.609375 2.894531 5.261719 3.941406 8.160157 2.332031 46.410156-25.753906 75.226562-74.632812 75.292968-127.707031zm0 0" data-original="#000000" class="active-path" data-old_color="#000000" fill="#FFFFFF"/><path d="m140.441406 245.800781c-29.925781-16.574219-48.480468-48.101562-48.4375-82.308593.042969-34.207032 18.671875-65.691407 48.636719-82.191407 1.902344-1.023437 3.105469-2.992187 3.152344-5.148437.046875-2.160156-1.070313-4.175782-2.921875-5.285156-1.855469-1.105469-4.160156-1.132813-6.039063-.066407-33.777343 18.613281-54.777343 54.109375-54.824219 92.675781-.046874 38.566407 20.867188 74.113282 54.601563 92.808594 1.875 1.078125 4.1875 1.0625 6.046875-.042968 1.859375-1.101563 2.984375-3.121094 2.941406-5.28125-.042968-2.164063-1.25-4.136719-3.152344-5.160157zm0 0" data-original="#000000" class="active-path" data-old_color="#000000" fill="#FFFFFF"/><path d="m292.003906 163.605469c-.039062-38.605469-21.035156-74.140625-54.828125-92.800781-1.875-1.066407-4.183593-1.042969-6.035156.066406-1.855469 1.105468-2.96875 3.125-2.921875 5.28125.046875 2.160156 1.25 4.125 3.152344 5.152344 29.964844 16.5 48.59375 47.980468 48.636718 82.191406.039063 34.207031-18.511718 65.734375-48.4375 82.308594-1.90625 1.023437-3.109374 2.996093-3.152343 5.160156-.042969 2.160156 1.078125 4.179687 2.941406 5.28125 1.859375 1.105468 4.171875 1.121094 6.046875.042968 33.65625-18.710937 54.546875-54.175781 54.597656-92.683593zm0 0" data-original="#000000" class="active-path" data-old_color="#000000" fill="#FFFFFF"/><path d="m208.21875 123.324219c-18.160156-10.015625-40.773438-6.640625-55.21875 8.234375-14.445312 14.878906-17.148438 37.582031-6.605469 55.4375 10.542969 17.855468 31.730469 26.445312 51.734375 20.980468 20-5.464843 33.875-23.636718 33.875-44.371093 0-16.757813-9.113281-32.191407-23.785156-40.28125zm-22.214844 74.28125c-18.777344 0-34-15.222657-34-34 0-18.78125 15.222656-34 34-34s34 15.21875 34 34c-.023437 18.765625-15.230468 33.976562-34 34zm0 0" data-original="#000000" class="active-path" data-old_color="#000000" fill="#FFFFFF"/></g> </svg>
